<svg version="1" xmlns="http://www.w3.org/2000/svg" width="1333.333" height="1333.333" viewBox="0 0 1000.000000 1000.000000"><path d="M491.7 67c-2 3.3-3.7 6.4-3.7 6.9s-.3 1.1-.7 1.3c-1 .4-7.3 10.7-7.3 11.9 0 .5-.4.9-.9.9s-1.1.6-1.3 1.2c-.2.7-4.6 8.4-9.8 17-5.2 8.6-10.4 17.3-11.5 19.2-1.1 1.9-6.2 10.4-11.4 18.8s-10.3 16.9-11.3 18.8c-1.1 1.9-2.6 4.2-3.4 5.1-.8.9-1.1 1.9-.7 2.2.3.4.1.7-.5.7-.7 0-1.2.5-1.2 1.1 0 .6-1 2.5-2.2 4.2-1.3 1.8-2.8 4.1-3.4 5.2-2 3.7-3.9 7-4.4 7.5-1 .9-10.7 17.5-11.3 19.2-.4 1-1.1 1.8-1.7 1.8-.5 0-1 .4-1 1 0 .5-3.5 6.6-7.7 13.5-4.3 6.9-8.5 13.8-9.4 15.3-6.6 11.1-24.3 39.9-25 40.6-.5.6-.9 1.7-.8 2.5 0 1.1.2 1.2.6.3.2-.6.8-1.2 1.3-1.2.4 0 2.8-.9 5.4-2 2.5-1.2 4.8-2.1 5.1-2.1.2 0 2-.6 4-1.5 1.9-.8 3.7-1.4 4-1.4.3 0 1-.2 1.7-.5 2.4-.8 10.3-2.9 11.3-3 .6-.1 2.8-.7 5-1.3 2.2-.6 5.4-1.3 7-1.6 1.7-.3 5.5-1.1 8.5-1.7 6.2-1.2 7.6-1.4 14.5-2.3 2.8-.4 5.9-.9 7-1.1 9.7-2.1 28.8-3.7 28-2.5-.3.5-.5 8.4-.5 17.7v39c.1 3.9-.3 7.4-.9 7.7-.5.3-3.6.9-6.8 1.2-5.8.7-8.8 1.1-8.8 1.4 0 .1-1.4.3-3.2.6-1.8.2-5.2.8-7.5 1.4-2.4.6-5.5 1.2-7 1.5-2.9.4-9.5 2.1-14.3 3.6-8.1 2.5-24.6 8-29 9.7-8 3.1-22.8 9.6-25.5 11.2-.8.5-4 2.1-7 3.7-3 1.5-5.6 3.1-5.8 3.5-.2.5-.7.8-1.2.8-2.1 0-25 14.7-33.7 21.7-2.3 1.8-4.6 3.3-5.2 3.3-.6 0-1.1.3-1.1.7 0 .5-2.8 3-6.3 5.8-7.1 5.7-28.8 27.1-36.2 35.9-6.6 7.7-17.4 22.1-21.6 28.8-1.8 2.9-3.8 5.6-4.4 6-.6.5-.6.8 0 .8.7 0 .7.3 0 .8-1.1.7-2.3 2.8-6.3 10.2-1.3 2.5-2.9 4.8-3.6 5.2-.6.4-.7.8-.3.8.4 0-.3 1.9-1.7 4.2-1.3 2.4-4.3 8.6-6.6 13.8-2.3 5.2-5 11.4-6.1 13.7-1 2.4-1.9 4.9-1.9 5.6 0 .7-.4 1.7-.8 2.2-.7.8-4.8 13.3-7.7 23-.1.5-.3 1.3-.5 1.7-1.4 5-3.1 12-3.6 14.8-.8 4.7-1.2 6.5-1.4 6.5-.1 0-.6 2.3-1.4 7.5-.2 1.4-.9 5.4-1.5 9-1.4 8.6-2.2 18.4-2.6 30.1-.1 5.4-.5 10.2-.9 10.7-.3.6-.2 1.3.4 1.7.7.4.7 1.2 0 2.4-.5 1-.6 2.1-.3 2.5.4.3.7 4.3.9 8.9.2 8.2 1 18.4 1.9 24.2.6 3.8 1.6 10.4 1.9 13 .2 1.1.6 3.3.9 5 .4 1.6.9 4.6 1.2 6.5.9 5.2 4.1 17.3 8.1 30.5 2.2 7 3.7 11.4 7 20 .4 1.1.8 2.2.9 2.5.1.3 1.3 3.1 2.8 6.4 1.5 3.2 2.7 6 2.7 6.2 0 .7 7.4 15.5 11.5 22.9 4 7.3 12.6 21.2 15.8 25.5 1 1.4 4.8 6.6 8.5 11.6 14.5 19.7 34.2 40.3 52.2 54.8 2.5 2 5.2 4.2 6 4.9.8.7 4 3.1 7 5.2 3 2.2 5.7 4.3 5.8 4.7.2.5 1 .8 1.8.8s1.4.4 1.4 1c0 .5.7 1 1.5 1s1.5.4 1.5 1c0 .5.7 1 1.5 1s1.5.4 1.5 1c0 .5.4 1 1 1 .5 0 3.7 1.8 7.1 4 6.2 4 34.4 18.4 40.9 20.8 1.9.8 4.4 1.8 5.5 2.2 1.1.5 4.9 1.9 8.5 3.1 3.6 1.2 7.1 2.7 7.8 3.2.6.5 1.2.7 1.2.4 0-.2 3.7.6 8.3 2 8.1 2.4 9.4 2.7 14.9 3.7 1.5.2 3.1.7 3.5.9.5.3 3 .8 5.7 1.1 2.7.4 5.3.9 5.6 1.1.9.6 10.2 1.8 26 3.4 7.9.8 44.8.6 51.5-.3 1.7-.2 5.8-.7 9.2-1.1 10.2-1.2 10.5-1.2 18.8-3 4.4-1 8.9-1.9 10-2 1.1-.1 2.7-.5 3.5-.8.8-.4 2.6-.8 4-1.1 3.6-.6 31.6-10 37.5-12.6 2.8-1.2 7.8-3.5 11.3-5.1 3.5-1.6 6.7-2.9 7.2-2.9.6 0 1-.5 1-1.2 0-.6.3-.9.6-.6.3.4 3.3-.9 6.6-2.8s6.4-3.4 6.9-3.4.9-.5.9-1c0-.6.5-1 1.2-1s2.8-1 4.7-2.3c2-1.3 6.3-4.1 9.6-6.3 3.3-2.1 6.4-4.1 7-4.3.5-.2 1.5-.9 2.2-1.5 1.6-1.5 2.7-2.3 9.8-7.6 6.4-4.7 9.8-7.5 12.7-10.2 1-1 2.1-1.8 2.4-1.8.7 0 26.4-25.8 31.5-31.5 6-6.9 17.9-22.4 17.9-23.5 0-.5.4-1 .8-1 1.4 0 24.2-36.6 24.2-38.9 0-1.1 5.5-11.6 6.3-11.9.4-.2.7-1.1.7-1.9 0-.9 1.3-4.3 2.9-7.7 7.5-16 18.1-51.5 20.6-68.9.3-2.1.8-5.4 1.1-7.5 2.2-13.8 2.9-24.7 2.8-44.2-.1-21.9-.6-36-1.5-36-.3 0-.6-1.7-.7-3.9-.2-2.1-.5-4.9-.8-6.2-.2-1.3-.7-4.2-1-6.4-.3-2.1-1.2-6.9-2.1-10.5-.8-3.6-1.6-7.2-1.8-8-1.5-7.2-7.9-28.1-9.6-31.5-.6-1.2-1.1-2.7-1.3-3.5-.5-2.3-.9-3.5-7.6-19-3.9-9.1-13.7-27.9-15.6-30.1-.8-.8-1.4-1.9-1.4-2.3 0-1-16.2-25.4-18.7-28.1-1-1.1-3.1-3.8-4.8-6-8.2-11.1-32-34.9-44.9-45-2.1-1.7-5-4-6.5-5.2-1.4-1.3-2.9-2.3-3.3-2.3-.4 0-1.3-.6-2-1.3-4.5-4.3-24.5-17-37.6-23.8-3-1.6-6-3.3-6.8-4-.8-.6-1.4-.9-1.4-.5s-1.9-.4-4.2-1.7c-4.4-2.4-31.7-13.6-34.7-14.2-.9-.2-4.5-1.3-8.1-2.4-3.6-1.2-7.4-2.3-8.5-2.6-1.1-.2-3.5-.8-5.4-1.4-1.8-.6-3.6-1-4-.9-.3 0-.8-.1-1.1-.2-1.3-.5-7.1-1.7-14.5-3.1-6.5-1.2-7.5-1.4-14.8-2.3-5.4-.6-7-1.3-6.2-2.6.3-.5.1-1.1-.5-1.5-.6-.4-.7-1.2-.1-2.3.5-.9.5-2.6 0-3.9-.5-1.3-.5-2.3-.1-2.3s.7-1.4.7-3c0-1.7-.3-3-.7-3-.4 0-.3-1.1.2-2.5.6-1.6.6-2.5 0-2.5s-.6-.9 0-2.5.6-2.5 0-2.5-.6-.9 0-2.5c.5-1.4.5-2.7 0-3-.5-.3-.5-1.8-.1-3.3.5-1.5.4-3.7 0-5-.5-1.2-.5-2.2-.1-2.2s.7-1.4.7-3c0-1.7-.3-3-.7-3-.4 0-.3-1.2.1-2.8.4-1.5.4-3.9 0-5.5s-.3-2.7.2-2.7c.6 0 .7-.5.4-1-.3-.6-.4-1.8-.1-2.8.5-1.5 1.8-1.7 9.3-1.5 12.8.2 25.5 1.1 32.6 2.3 3.4.5 7.6 1.2 9.2 1.4 1.7.3 4.4.8 6 1.2 1.7.3 3.7.7 4.5.9 7.8 1 27.7 9.2 35.9 14.7 2.4 1.6 4.5 2.7 4.7 2.5.2-.2-1.9-4-4.6-8.4-2.8-4.5-5-8.6-5-9.2 0-.6-.4-1.1-1-1.1-.5 0-1-.7-1-1.5s-.4-1.5-1-1.5c-.5 0-1-.4-1-.9 0-.4-2.5-4.8-5.5-9.7-3-4.9-5.8-9.6-6.2-10.4-.4-.8-1.1-2-1.5-2.5-.8-1-23.9-38.8-26.2-43-.6-1.1-2.8-4.6-4.9-7.8-2-3.1-3.7-5.9-3.7-6.2 0-.2-1.3-2.4-3-4.8-1.6-2.5-3-5-3-5.6 0-.6-.4-1.1-1-1.1-.5 0-1-.4-1-1 0-.5-2.2-4.5-5-8.8-2.7-4.3-5-8.4-5-9 0-.5-.3-1.2-.8-1.4-.4-.2-2.7-3.7-5.2-7.8s-4.8-7.7-5.2-7.8c-.5-.2-.8-.8-.8-1.3s-2.1-4.4-4.7-8.7c-2.7-4.2-5.4-8.9-6.2-10.5-.8-1.5-1.8-2.7-2.3-2.7-.4 0-.8-.9-.8-1.9 0-1.1-.4-2.1-.8-2.3-.5-.2-2.4-2.9-4.3-6.2-1.9-3.2-4.4-7.5-5.7-9.5-1.2-2-2.5-4.3-2.9-5.1-.4-.8-.9-1.7-1.3-2-.3-.3-3.5-5.3-6.9-11.3-3.5-5.9-6.6-10.7-7-10.7-.3 0-2.3 2.7-4.4 6zM464 417.9v12.6c0 3.8 0 9.9-.1 13.5 0 3.6.1 6.9.2 7.5.1.5.1 1.4 0 1.9-.2.8-.1 19 0 23.6.1.8 0 3.5 0 6-.1 2.5-.1 7.9-.1 12s0 12.4.1 18.5c0 6 0 11.4.1 12 0 .5-.1 2.3-.1 4-.1 1.6-.2 7.5-.2 13-.1 10.6-.1 10.9.1 14 .1 1.1.1 4.1.1 6.7v6c.1 1.5 0 21.4 0 24.3v10c.1 4.4.1 8.6 0 9.2-.1 2-.2 25.6-.2 32.3.1 5.5.1 18.5.1 30 .1 7.4.1 14.1.1 14.7v13.8c0 6.9 0 13.1.1 13.7 0 .7-.1 2.6-.1 4.3-.1 1.6-.2 7.5-.2 13-.1 10.6-.1 10.9.1 14 .1 1.1.1 4.1.1 6.7v6c.1 1.5 0 21.4 0 24.3v10c.1 4.4.1 8.6 0 9.2-.1 2.4-.3 28.2-.2 32.8.2 6.9 0 12.9-.4 13.6-.3.4-1.3.8-2.3.8-.9.1-2.4.1-3.2.2-.8 0-2.4-.1-3.5-.4-1.1-.3-4.5-.8-7.6-1.1-6.7-.8-8-1-13.9-2.6-6-1.5-21.9-7.1-25-8.7-1.4-.7-3-1.3-3.6-1.3-.5 0-1.5-.5-2.2-1.2-.6-.6-1.8-1.3-2.5-1.4-1.3-.2-23.8-13.3-24.7-14.4-.3-.3-2.1-1.7-4-3-3.5-2.4-6.8-5-14.9-11.8-4.9-4.1-19.6-18.6-25.1-24.8-5.8-6.5-18-22.9-18-24.2 0-.7-.4-1.2-.8-1.2-.5 0-1.5-1.2-2.3-2.8-.8-1.5-1.6-2.9-2-3.2-4.1-3.7-24.9-48.8-24.9-54 0-.9-.3-2-.7-2.4-.4-.3-.8-1.2-.9-1.9-.1-.7-1-3.9-1.9-7.2-1-3.3-1.9-6.9-2-8-.1-1.1-.4-2.1-.5-2.3-.1-.1-.3-1-.4-2-.1-.9-.5-3.1-.9-4.7-.7-2.9-1.4-8-2.3-15.5-.3-2.7-1.2-16.2-1.5-24.5-.1-2.3 1-20.3 1.6-24.5 1-8 1.7-12.4 2-13 .2-.3.6-2.2.9-4.3 2.7-17.1 18-57.9 24.4-65.1 1-1 1.5-2 1.4-2.3-.3-.4 8.8-15 11-17.8.5-.6 2.5-3.3 4.6-6.1 15.1-20.7 39.7-42.8 63.2-57 3.6-2.1 6.7-4.1 7-4.4.3-.3 1.2-.6 2-.8.8-.2 1.7-.8 1.8-1.3.2-.5.9-.9 1.5-.9s3.8-1.3 7.1-2.9c5.2-2.4 8.5-3.9 10.6-4.6.3-.1 1.4-.5 2.5-.9s3.1-1.2 4.5-1.6c1.4-.4 3.4-1.1 4.5-1.5 1.1-.4 2.7-.9 3.5-1 .8-.2 4.4-1 8-1.8 3.6-.9 9-1.9 12-2.3 3-.3 5.6-.8 5.8-.9.2-.1 3-.2 6.3-.2l5.9.1v5.5zm91-2.9c41.3 8.4 84.2 35.9 114.5 73.5 8.1 10.1 18.4 25.1 21.1 30.7 1 2.1 2.1 3.8 2.6 3.8.4 0 .8.5.8 1.1 0 .7 2 5.3 4.4 10.3 5.8 11.8 11.4 26.3 12 30.7.1.8.7 2.8 1.3 4.5 1 2.5 2 6.4 3.8 15.1.3 1.3.7 3.3 1 4.5.3 1.3.6 3.5.7 5 .1 1.6.4 2.8.7 2.8 2.2 0 1.9 49.9-.3 63-.5 2.4-1.2 6.8-2.1 12-.2 1.4-1.4 6.1-2.5 10.5-1.2 4.4-2.3 8.5-2.4 9.2-.1.7-.5 1.6-.9 1.9-.4.4-.7 1.4-.7 2.1 0 4.8-19.6 48.3-23.1 51.3-.3.3-1.9 2.7-3.4 5.4-2.9 4.9-15.6 22.1-21.1 28.5-5.1 5.9-20.7 21.4-25.8 25.6-2.7 2.2-5.4 4.4-6 5-.6.5-2.9 2.3-5.1 3.9-2.2 1.7-4.2 3.3-4.5 3.6-1.8 2.2-31.3 18.9-33.7 19.1-.5.1-1.9.7-3.3 1.5-3.5 1.9-16 6.4-16 5.7 0-.3-.6-.1-1.2.5-2.2 1.7-17.4 4.8-27.5 5.6-2.8.2-5.6.7-6.2 1-.5.4-1.2.2-1.6-.4-.4-.6-1-.8-1.4-.5-.5.2-.9-1.5-.9-3.8-.6-17.8-.6-25.7-.2-25.7.7 0 .3-9.7-.4-10.9-.4-.5-.2-1.2.3-1.6.7-.4.7-1.5.1-3-.5-1.4-.6-2.5-.2-2.5.8 0 .7-8.9-.2-9.7-.3-.3-.1-1.4.4-2.4.7-1.2.7-2 0-2.4-.6-.4-.8-1.1-.4-1.6.8-1.3 1.1-7.9.4-7.9-.6 0-.2-12.4.4-15.2.2-1 0-1.8-.5-1.8s-.4-1.1.1-2.5c.6-1.5.6-2.6 0-3-.6-.4-.7-1.4-.2-2.3.5-.9.7-2.8.5-4.2-.5-4.8-.8-25-.3-25 .7 0 .3-9.7-.4-10.9-.4-.5-.2-1.2.3-1.6.7-.4.7-1.5.1-3-.5-1.4-.6-2.5-.2-2.5.8 0 .7-8.9-.2-9.7-.3-.3-.1-1.4.4-2.4.7-1.2.7-2 0-2.4-.6-.4-.8-1.1-.4-1.6.8-1.3 1.1-7.9.4-7.9-.6 0-.2-12.4.4-15.3.2-.9 0-1.7-.5-1.7s-.4-1.1.1-2.5c.6-1.5.6-2.6 0-3-.6-.4-.7-1.4-.2-2.3.5-.9.7-2.8.5-4.2-.5-4.8-.8-25-.3-25 .7 0 .3-9.7-.4-10.9-.4-.5-.2-1.2.3-1.6.7-.4.7-1.5.1-3-.5-1.4-.6-2.5-.2-2.5.8 0 .7-8.9-.2-9.7-.3-.3-.1-1.4.4-2.4.7-1.2.7-2 0-2.4-.6-.4-.8-1.1-.4-1.6.8-1.3 1.1-7.9.4-7.9-.6 0-.2-12.4.4-15.3.2-.9 0-1.7-.5-1.7s-.4-1.1.1-2.5c.6-1.5.6-2.6 0-3-.6-.4-.7-1.4-.2-2.3.5-.9.7-2.8.5-4.2-.5-4.8-.8-25-.3-25 .7 0 .3-9.7-.4-10.9-.4-.5-.2-1.2.3-1.6.7-.4.7-1.5.1-3-.5-1.4-.6-2.5-.2-2.5.9 0 .6-7.5-.3-9-.3-.6-.3-1 .2-1 .4 0 .8-1.4.8-3 0-1.7-.3-3-.7-3-.4 0-.3-1.1.2-2.5.6-1.6.6-2.5 0-2.5s-.6-.9 0-2.5.6-2.5 0-2.5-.6-.9 0-2.5c.5-1.4.5-2.7 0-3-.5-.3-.5-1.8-.1-3.3.5-1.5.4-3.7 0-5-.5-1.2-.5-2.2-.1-2.2s.7-1.4.7-3c0-1.7-.3-3-.7-3-.4 0-.3-1.1.2-2.5.6-1.6.6-2.5 0-2.5s-.6-.9 0-2.5.6-2.5 0-2.5-.6-.9 0-2.5c.5-1.4.5-2.7 0-3-.5-.3-.5-1.8-.1-3.3.5-1.5.4-3.7 0-5-.5-1.2-.5-2.2-.1-2.2s.7-1.4.7-3c0-1.7-.3-3-.7-3-.4 0-.3-1.1.2-2.5.6-1.6.6-2.5 0-2.5s-.6-.9 0-2.5.6-2.5 0-2.5-.6-.9 0-2.5c.5-1.3.6-2.7.1-2.9-.8-.5-.5-4.2.5-7.4.5-1.8 13.2-.9 26.4 1.8zM126.2 695.3c-.6 1.2-2.9 5.3-5 9.2-4 7.3-9.4 17.1-14.5 26.5-6.3 11.7-9.1 16.7-11.5 21-1.4 2.5-3.9 7-5.5 10s-3.7 6.8-4.7 8.5c-.9 1.6-3.4 6.1-5.4 9.8-2 3.7-4.6 8.4-5.8 10.5-2.4 4.2-11.5 20.9-16 29.2-3.8 6.9-10.6 19-11.9 21-.5.8-1.5 2.6-2.1 4-.7 1.4-2 3.7-3 5.1-.9 1.4-1.5 2.9-1.1 3.3.3.3.1.6-.5.6-.7 0-1.2.4-1.2.9s-3.4 6.9-7.5 14.2c-4.1 7.2-7.5 13.3-7.5 13.4 0 .3-10.8 19.7-12 21.5-.6.8-1.5 2.6-2.1 4-.6 1.4-1.8 3.3-2.6 4.2-.9 1-1.2 1.8-.8 1.8.4 0 .2.8-.6 1.7-.8 1-2.2 3.2-3.1 4.9-1.9 3.4-1.7 3.6 4.7 3.3 1.7-.1 3.7-.1 4.5 0 .8 0 4.4.1 8 0 3.6 0 7.2 0 8 .1 7.3.2 11.1.1 11.8-.4.4-.2 1.4-.1 2.2.4.8.5 2.2.5 3.2-.1 1.2-.6 1.8-.6 1.8 0 0 .7.8.7 2.4.1 1.3-.5 2.6-.6 2.9-.4.8.9 7 1 9.8.3 1.5-.4 3.2-.3 4 .1.7.5 2.1.4 3.1-.1 1.2-.6 1.8-.6 1.8 0 0 .7.8.7 2.4.1 1.3-.5 2.6-.6 2.9-.4.9.9 7 1 10 .3 1.5-.4 2.7-.4 2.7.1s1.3.5 2.9 0c1.6-.4 3.1-.6 3.3-.4.4.3 4.1.4 12.3.4 4.3-.1 15.1-.1 16.5-.1.8.1 4.4.1 8 0h8c.8.1 4.4.1 8 0 3.6 0 7.2 0 8 .1 7.3.2 11.1.1 11.8-.4.4-.2 1.4-.1 2.2.4.8.5 2.2.5 3.2-.1 1.2-.6 1.8-.6 1.8 0 0 .7.8.7 2.4.1 1.3-.5 2.6-.6 2.9-.4.8.9 7 1 9.8.3 1.5-.4 3.2-.3 4 .1.7.5 2.1.4 3.1-.1 1.2-.6 1.8-.6 1.8 0 0 .7.8.7 2.4.1 1.3-.5 2.6-.6 2.9-.4.9.9 7 1 10 .3 1.5-.4 2.7-.4 2.7.1s1.3.5 2.9 0c1.6-.4 3.1-.6 3.3-.4.4.3 3.8.4 12.3.4 1.1 0 5.1 0 8.8.1 3.8 0 7.1-.2 7.4-.5.3-.3 1.4-.1 2.4.5 4.7 2.4.7-2.2-16.3-19.4-10.1-10.1-21.4-21.8-25.3-26.1-3.8-4.3-8.1-9.1-9.5-10.6-1.4-1.6-3.5-4.1-4.7-5.7-1.2-1.5-4.5-5.7-7.3-9.2-2.7-3.5-5-6.6-5-7 0-.3-1-1.7-2.2-3.1-2.9-3.2-9.8-13.7-9.8-14.9 0-.5-.4-1.1-.8-1.3-2-.8-15.2-25.9-21.5-40.8-3.7-8.8-11.7-31.7-11.5-32.8.1-.4-.2-1.5-.5-2.5-1.6-4.2-2-5.3-2.3-7.2-.1-1.1-.8-4.3-1.4-7-.7-2.8-1.4-5.9-1.5-7-.2-1.1-.9-4.5-1.5-7.5-.7-3-1.3-7.1-1.5-9-.2-1.9-.4-3.5-.5-3.5-.2 0-.7-4.1-1-10.3-.4-6-1.2-7.1-2.8-3.9zM863.3 694.2c-.1 5.1-8 39.9-11 48.8-.8 2.5-1.6 4.9-1.7 5.5-1.8 7.5-9.7 29.5-14.6 40.1-1.6 3.5-2.6 6.4-2.3 6.4.3 0-.2.9-1.3 2.1-1 1.2-1.8 2.3-1.6 2.5.3.5-5.9 13.3-11.3 22.9-3.9 7-19.7 31.5-21.8 33.8-.7.7-3.4 4.1-6.2 7.7-2.7 3.6-5.2 6.7-5.5 7-.3.3-2.8 3.2-5.5 6.4-5.7 6.8-14.3 15.9-31.5 33.4-6.6 6.8-11.8 12.7-11.5 13.3.4.5 1 .7 1.4.5.4-.3 2.5-.5 4.7-.6 3.6 0 15.8-.1 19.4-.1.8.1 4.4.1 8 0h8c.8.1 4.4.1 8 0 3.6 0 7.2 0 8 .1 7.3.2 11.1.1 11.8-.4.4-.2 1.4-.1 2.2.4.8.5 2.2.5 3.2-.1 1.2-.6 1.8-.6 1.8 0 0 .7.8.7 2.4.1 1.3-.5 2.6-.6 2.9-.4.8.9 7 1 9.8.3 1.5-.4 3.2-.3 4 .1.7.5 2.1.4 3.1-.1 1.2-.6 1.8-.6 1.8 0 0 .7.8.7 2.4.1 1.3-.5 2.6-.6 2.9-.4.9.9 7 1 10 .3 1.5-.4 2.7-.4 2.7.1s1.3.5 2.9 0c1.6-.4 3.1-.6 3.3-.4.4.3 4.1.4 12.3.4 4.3-.1 15.1-.1 16.5-.1.8.1 4.4.1 8 0h8c.8.1 4.4.1 8 0 3.6 0 7.2 0 8 .1 7.3.2 11.1.1 11.8-.4.4-.2 1.4-.1 2.2.4.8.5 2.2.5 3.2-.1 1.2-.6 1.8-.6 1.8 0 0 .7.8.7 2.4.1 1.3-.5 2.6-.6 2.9-.4.8.9 7 1 9.8.3 1.5-.4 3.2-.3 4 .1.7.5 2.1.4 3.1-.1 1.2-.6 1.8-.6 1.8 0 0 .7.8.7 2.4.1 1.3-.5 2.6-.6 2.9-.4.9.9 7 1 10 .3 1.6-.5 2.7-.4 2.7.2 0 .6.4.7 1 .4 1.4-.8 11.4-1 12.7-.2 2.8 1.8 2.1-1.2-1.8-7.3-2.1-3.2-34-56.9-35.5-59.5-.6-1.1-3.6-6.2-6.7-11.3-3.1-5-5.3-9.2-4.9-9.2.4 0 .2-.4-.4-.8-1-.6-9.1-14-19.7-32.2-1.1-1.9-2.8-4.9-3.8-6.5-1.1-1.7-2.2-3.7-2.6-4.5-.4-.8-2.2-3.8-4-6.7-1.8-2.9-3.3-5.4-3.3-5.7 0-.3-1.7-3.3-3.8-6.8-6.4-10.4-16.8-28-19.5-32.8-1.3-2.5-4.2-7.4-6.2-11-2.1-3.6-4.3-7.5-4.9-8.7-.6-1.3-1.5-2.3-1.9-2.3-.5 0-.5-.5-.2-1 .3-.6.1-1-.4-1-.6 0-1.1-.4-1.1-1 0-.5-1.9-4.2-4.2-8.3-2.4-4-5.2-9-6.2-11-1.9-3.8-3.2-4.7-3.3-2.5z"/></svg>